<?xml version="1.0" standalone="no"?>
<!DOCTYPE svg PUBLIC "-//W3C//DTD SVG 20010904//EN"
 "http://www.w3.org/TR/2001/REC-SVG-20010904/DTD/svg10.dtd">
<svg version="1.0" xmlns="http://www.w3.org/2000/svg"
 width="185.000000pt" height="151.000000pt" viewBox="0 0 185.000000 151.000000"
 preserveAspectRatio="xMidYMid meet">

<g transform="translate(0.000000,151.000000) scale(0.100000,-0.100000)"
fill="#000000" stroke="none">
<path d="M850 1215 l0 -95 68 0 c96 0 111 13 110 93 -1 87 -12 97 -105 97
l-73 0 0 -95z m135 40 c0 -5 -21 -11 -47 -13 -39 -3 -48 0 -48 13 0 13 9 16
48 13 26 -2 47 -7 47 -13z m0 -75 c0 -11 -13 -16 -47 -18 -43 -3 -48 -1 -48
18 0 19 5 21 48 18 34 -2 47 -7 47 -18z"/>
<path d="M863 995 c-24 -46 -43 -89 -43 -95 0 -18 39 -11 50 10 8 16 21 20 60
20 39 0 53 -4 62 -20 7 -11 23 -20 35 -20 22 0 21 4 -24 95 -41 83 -51 95 -73
95 -21 0 -31 -13 -67 -85z m97 -17 c0 -5 -14 -8 -30 -8 l-31 0 17 32 16 32 14
-25 c7 -13 13 -27 14 -31z"/>
<path d="M380 755 l0 -95 73 0 c103 0 117 12 113 96 -5 88 -12 94 -107 94
l-79 0 0 -95z m140 40 c0 -11 -12 -15 -50 -15 -38 0 -50 4 -50 15 0 11 12 15
50 15 38 0 50 -4 50 -15z m5 -75 c0 -11 -13 -16 -44 -18 -45 -3 -68 8 -56 28
11 17 100 9 100 -10z"/>
<path d="M646 758 c-43 -89 -44 -93 -24 -96 12 -2 25 3 30 12 12 22 116 23
124 1 5 -12 54 -23 54 -12 0 2 -21 45 -46 95 -38 78 -49 92 -70 92 -20 0 -30
-14 -68 -92z m94 -15 c0 -7 -11 -13 -25 -13 -28 0 -30 6 -14 47 l11 28 13 -25
c8 -14 14 -31 15 -37z"/>
<path d="M820 846 c0 -2 20 -30 45 -62 33 -42 45 -67 45 -91 0 -26 4 -33 20
-33 16 0 20 7 20 32 0 23 13 48 45 89 25 32 45 60 45 63 0 3 -11 6 -24 6 -16
0 -32 -12 -51 -40 -15 -22 -30 -40 -34 -40 -3 0 -19 18 -34 40 -20 28 -36 40
-53 40 -13 0 -24 -2 -24 -4z"/>
<path d="M1080 755 l0 -95 85 0 c78 0 85 2 85 20 0 18 -7 20 -65 20 -58 0 -65
2 -65 20 0 18 7 20 60 20 53 0 60 2 60 20 0 18 -7 20 -60 20 -47 0 -60 3 -60
15 0 12 14 15 65 15 58 0 65 2 65 20 0 18 -7 20 -85 20 l-85 0 0 -95z"/>
<path d="M1310 755 c0 -87 2 -95 19 -95 16 0 20 8 23 37 4 53 29 54 64 4 19
-27 37 -41 52 -41 28 0 28 6 -2 45 -23 30 -24 32 -5 43 26 17 26 77 0 92 -11
5 -49 10 -85 10 l-66 0 0 -95z m128 38 c-2 -14 -13 -18 -43 -18 -30 0 -41 4
-43 18 -3 14 4 17 43 17 39 0 46 -3 43 -17z"/>
<path d="M850 525 l0 -95 85 0 c78 0 85 2 85 20 0 18 -7 20 -65 20 -58 0 -65
2 -65 20 0 18 7 20 60 20 53 0 60 2 60 20 0 18 -7 20 -60 20 -47 0 -60 3 -60
15 0 12 14 15 65 15 58 0 65 2 65 20 0 18 -7 20 -85 20 l-85 0 0 -95z"/>
<path d="M850 285 c0 -88 1 -95 20 -95 17 0 20 7 20 40 0 36 3 40 24 40 16 0
35 -13 56 -40 22 -28 39 -40 57 -40 l25 0 -26 34 c-30 40 -31 43 -11 62 20 21
19 57 -3 77 -14 13 -38 17 -90 17 l-72 0 0 -95z m135 40 c0 -5 -21 -11 -47
-13 -39 -3 -48 0 -48 13 0 13 9 16 48 13 26 -2 47 -7 47 -13z"/>
</g>
</svg>
